<?xml version="1.0" encoding="UTF-8" standalone="no"?>
<!-- Created with Inkscape (http://www.inkscape.org/) -->

<svg
   width="512"
   height="512"
   viewBox="0 0 512 512"
   version="1.1"
   id="svg5"
   xmlns="http://www.w3.org/2000/svg"
   xmlns:svg="http://www.w3.org/2000/svg">
  <defs
     id="defs2" />
  <g
     id="layer1">
    <path
       style="fill:#080808;stroke:none;stroke-width:2.01266"
       d="m 212.7868,125.01055 c -14.06133,4.59772 -5.44022,51.06653 11.91645,45.64768 14.01623,-4.37605 5.63281,-51.38576 -11.91645,-45.64768 m 75.19237,0.52539 c -12.28365,5.92174 -16.94145,54.69358 3.56332,44.37543 12.0142,-6.04528 16.49237,-54.04563 -3.56332,-44.37543 m -148.12935,24.6105 c -16.8533,6.52702 8.19501,45.97291 22.38585,41.8451 19.05458,-5.54278 -6.86138,-47.85761 -22.38585,-41.8451 m 219.27464,0.54613 c -8.13548,4.16174 -19.54396,22.3835 -20.19146,30.93758 -0.5723,7.55684 7.71357,13.24546 15.19112,9.61453 8.7788,-4.26259 19.17426,-21.92657 20.23114,-30.90906 0.93783,-7.97963 -7.35431,-13.67175 -15.2308,-9.64305 m -113.22633,41.64011 c -47.26122,2.75956 -89.32367,22.51984 -119.04775,57.18512 -7.78877,9.08412 -20.9269,22.67732 -21.48186,34.90906 -0.66212,14.59975 15.48854,32.50034 25.38042,42.49209 32.63698,32.97161 81.30181,51.57038 129.77009,48.48481 43.56401,-2.77139 85.21269,-22.9275 112.94854,-54.12844 8.09371,-9.10351 21.37784,-22.51247 22.15066,-34.90906 0.90858,-14.54351 -15.03864,-32.5527 -24.76154,-42.66664 -30.93991,-32.18673 -77.52001,-54.13697 -124.95856,-51.36694 m -164.884906,6.67559 c -22.797157,5.20435 14.989349,39.23778 28.997006,35.55255 23.2794,-6.1246 -15.569797,-38.61776 -28.997006,-35.55255 m 342.413956,-0.14662 c -9.7772,1.17023 -26.9317,13.64634 -31.22189,21.73884 -3.64896,6.8829 1.9049,15.06869 10.35578,14.22079 9.97354,-1.00073 27.04448,-13.94365 31.22188,-22.17889 3.53826,-6.97619 -1.80463,-14.80416 -10.35577,-13.78074 m -190.06125,14.36896 c 42.31706,-5.10604 89.79321,10.37671 118.13896,40.24161 7.12455,7.50739 18.391,18.7132 20.00139,29.01525 1.51848,9.71636 -9.28845,20.38496 -15.53366,27.1515 -20.72409,22.44846 -51.11258,39.75754 -82.92139,44.0242 -42.19801,5.65915 -84.71579,-5.44775 -116.9365,-31.29985 -9.44802,-7.58109 -26.32367,-23.60435 -27.04198,-35.99706 -0.5558,-9.5903 11.34332,-20.38496 17.48472,-27.1515 21.90858,-24.14097 52.76766,-41.87691 86.80846,-45.98415 m 8.3548,25.5577 c -63.30724,11.06695 -44.4772,99.92797 18.7983,89.60652 62.30592,-10.16242 42.50295,-100.32283 -18.7983,-89.60652 m 6.2661,5.6671 c 53.42059,-3.67108 59.42351,73.63931 6.2661,78.41603 -54.93949,4.93575 -61.56214,-74.61618 -6.2661,-78.41603 z"
       id="path397" />
  </g>
</svg>
