<?xml version="1.0" encoding="UTF-8" standalone="no"?>
<!-- Created with Inkscape (http://www.inkscape.org/) -->

<svg
   width="512"
   height="512"
   viewBox="0 0 512 512"
   version="1.1"
   id="svg5"
   xmlns="http://www.w3.org/2000/svg"
   xmlns:svg="http://www.w3.org/2000/svg">
  <defs
     id="defs2" />
  <g
     id="layer1">
    <path
       style="fill:#21231f;stroke:none;stroke-width:0.359022"
       d="m 55.541647,284.26184 c -8.64699,6.93389 -5.290123,13.44373 -1.69844,19.63717 l 7.516992,12.96219 44.302271,76.39419 8.79648,15.16852 c 2.42047,4.17382 5.20825,8.23636 11.59041,7.89743 4.12652,-0.21902 7.36316,-2.30459 10.99565,-4.41113 l 13.98994,-8.11301 58.75777,-34.07462 173.47532,-100.60126 52.11255,-30.22094 15.38894,-8.92431 c 3.29113,-1.90858 6.76069,-3.59816 9.47309,-6.23068 6.76092,-6.56358 3.71235,-12.13479 0.52723,-17.62717 l -8.47661,-14.61694 -44.30228,-76.39418 -8.15673,-14.06536 c -2.61927,-4.516629 -5.7876,-8.940399 -12.96833,-7.855709 -3.77323,0.56953 -6.99112,2.84619 -10.31723,4.77506 l -16.78793,9.735609 -62.95476,36.50852 -163.68236,94.92216 -52.462287,30.42377 -16.438185,9.53278 c -2.816176,1.63315 -6.155264,3.15198 -8.681501,5.17791 m 4.121074,3.07668 c 7.590529,-5.67297 17.257116,-10.0895 25.496144,-14.86745 l 52.112545,-30.22095 160.53462,-93.09673 62.95475,-36.50852 17.13768,-9.93843 c 2.70006,-1.56581 5.68774,-3.836489 8.75831,-4.239549 4.00501,-0.52447 5.97857,2.250099 7.45142,4.789859 l 9.7561,16.82327 41.74329,71.98152 10.87565,18.7538 c 1.82199,3.14182 3.35994,6.22097 -0.29947,9.96064 -2.18342,2.23105 -5.44547,3.6901 -8.16302,5.26605 l -15.03919,8.72148 -51.7628,30.01812 -174.17482,101.00691 -57.70852,33.46615 -14.68944,8.51865 c -2.43845,1.4141 -5.10571,3.27341 -7.90002,3.30178 -3.81286,0.0386 -5.44397,-2.94009 -6.88084,-5.4178 l -9.91603,-17.09906 -41.583355,-71.70573 -8.316673,-14.34115 c -1.336585,-2.30478 -3.267118,-4.66021 -4.022284,-7.24947 -0.85146,-2.91891 0.664607,-5.70272 3.635953,-7.92339 m 22.810804,7.88092 c -1.285444,1.40845 0.32009,2.9923 0.940161,4.06154 l 5.277887,9.10112 c 0.5529,0.95341 1.14921,2.94636 2.52383,3.14315 1.44291,0.20657 3.68772,-1.58576 4.9615,-2.32445 l 9.792957,-5.67911 c 1.36752,-0.79304 3.39276,-1.62293 4.45698,-2.76894 1.45256,-1.56434 0.10547,-3.0644 -0.59042,-4.26437 l -5.11795,-8.82532 c -0.61271,-1.05656 -1.17534,-2.88182 -2.58604,-3.25044 -1.52401,-0.39798 -3.684717,1.35884 -5.059227,2.15595 l -10.14271,5.88193 c -1.35667,0.78675 -3.411923,1.62372 -4.456968,2.76894 M 113.2514,277.37083 c -1.28544,1.40845 0.32009,2.9923 0.94016,4.06154 l 5.27789,9.10112 c 0.5529,0.95341 1.1492,2.94636 2.52382,3.14315 1.44292,0.20657 3.68773,-1.58576 4.96151,-2.32445 l 9.79296,-5.67911 c 1.36752,-0.79304 3.39276,-1.62293 4.45698,-2.76894 1.45256,-1.56434 0.10546,-3.0644 -0.59042,-4.26437 l -5.11795,-8.82532 c -0.61271,-1.05656 -1.17534,-2.88183 -2.58604,-3.25044 -1.52401,-0.39798 -3.68472,1.35884 -5.05923,2.15595 l -10.14271,5.88192 c -1.35667,0.78676 -3.41193,1.62373 -4.45697,2.76895 m 30.77788,-17.84861 c -1.28545,1.40845 0.32009,2.9923 0.94016,4.06154 l 5.11795,8.82532 c 0.54682,0.94293 1.13914,2.94594 2.29171,3.3699 1.40248,0.51564 3.72408,-1.33044 5.00381,-2.07258 l 10.14271,-5.88193 c 1.36018,-0.78879 3.40559,-1.62337 4.45698,-2.76894 1.3792,-1.50226 0.0776,-3.11239 -0.59042,-4.26437 l -5.11795,-8.82532 c -0.63015,-1.08662 -1.21047,-2.80138 -2.63465,-3.22225 -1.47485,-0.43571 -3.66584,1.34789 -5.01062,2.12776 l -10.14271,5.88192 c -1.35667,0.78676 -3.41193,1.62373 -4.45697,2.76895 m 30.77788,-17.84861 c -1.28545,1.40845 0.32009,2.9923 0.94016,4.06154 l 5.11795,8.82532 c 0.54682,0.94293 1.13914,2.94594 2.2917,3.3699 1.40249,0.51563 3.72409,-1.33044 5.00382,-2.07258 l 10.14271,-5.88193 c 1.35738,-0.78716 3.41021,-1.62347 4.45697,-2.76894 1.30412,-1.42703 0.0506,-3.159 -0.59041,-4.26437 l -5.11795,-8.82532 c -0.63015,-1.08662 -1.21047,-2.80138 -2.63465,-3.22225 -1.47485,-0.43571 -3.66584,1.34789 -5.01062,2.12775 l -10.14271,5.88193 c -1.35668,0.78676 -3.41193,1.62373 -4.45697,2.76895 m 30.49266,-17.6014 c -1.03886,1.51128 0.39598,3.19006 1.03557,4.29295 l 4.95801,8.54953 c 0.6172,1.06428 1.19367,2.80301 2.61243,3.1839 1.53219,0.4113 3.65413,-1.28987 5.03284,-2.08941 l 10.49246,-6.08475 c 1.29512,-0.75107 3.53745,-1.64825 4.35693,-2.87456 0.68128,-1.01976 -0.10886,-1.88904 -0.55012,-2.64994 l -3.5186,-6.06741 c -0.93994,-1.62083 -2.71685,-7.04868 -4.89116,-7.35995 -1.32808,-0.18988 -3.46166,1.51621 -4.64346,2.20155 l -10.49246,6.08476 c -1.2465,0.72287 -3.59308,1.65065 -4.39244,2.81333 m 30.76809,-17.84293 c -1.09751,1.55119 0.38706,3.15211 1.04536,4.28727 l 4.95801,8.54953 c 0.6172,1.06427 1.19367,2.80301 2.61242,3.1839 1.5322,0.4113 3.65414,-1.28988 5.03285,-2.08941 l 10.49246,-6.08476 c 1.29512,-0.75106 3.53745,-1.64824 4.35693,-2.87456 0.89107,-1.33416 -0.77515,-3.03797 -1.3498,-4.02889 l -5.27789,-9.10111 c -0.5014,-0.86461 -1.05258,-2.7459 -2.30548,-2.90124 -1.4044,-0.17399 -3.43801,1.44095 -4.67017,2.1555 l -10.49246,6.08476 c -1.26574,0.73402 -3.57331,1.64766 -4.40223,2.81901 m 30.77788,-17.84861 c -1.63721,2.31379 2.72628,7.18583 3.76427,8.97572 1.02935,1.77499 2.48641,6.52962 4.80291,7.07318 1.50766,0.35366 3.38868,-1.13594 4.73171,-1.91479 l 10.84221,-6.28758 c 1.26364,-0.7328 3.53513,-1.63694 4.30832,-2.84636 0.64861,-1.01483 -0.0628,-1.91684 -0.50151,-2.67813 l -3.5186,-6.06741 c -0.96121,-1.65751 -2.66751,-6.95715 -4.92286,-7.28003 -1.37462,-0.19679 -3.40268,1.42047 -4.61176,2.12163 l -10.49246,6.08476 c -1.26574,0.73402 -3.57331,1.64766 -4.40223,2.81901 m 30.77788,-17.84861 c -1.63721,2.31378 2.72628,7.18583 3.76427,8.97572 1.02935,1.77499 2.48641,6.52962 4.80291,7.07318 1.50765,0.35366 3.38868,-1.13594 4.73171,-1.91479 l 10.84221,-6.28758 c 1.26364,-0.7328 3.53513,-1.63694 4.30832,-2.84636 0.64861,-1.01483 -0.0628,-1.91684 -0.50151,-2.67814 l -3.5186,-6.0674 c -0.96121,-1.65751 -2.66751,-6.95715 -4.92286,-7.28003 -1.37462,-0.19679 -3.40268,1.42046 -4.61176,2.12163 l -10.49246,6.08475 c -1.26574,0.73403 -3.57331,1.64767 -4.40223,2.81902 m 30.75864,-17.83746 c -1.14316,1.55629 0.39782,3.12634 1.06459,4.27611 l 4.95802,8.54953 c 0.61272,1.05656 1.17534,2.88183 2.58604,3.25044 1.46025,0.38152 3.39583,-1.19131 4.70948,-1.95312 l 10.49246,-6.08475 c 1.29232,-0.74944 3.55299,-1.64805 4.42147,-2.83017 1.09423,-1.48995 -0.26508,-2.89743 -0.90466,-4.00032 l -5.27789,-9.10111 c -0.5529,-0.95341 -1.1492,-2.94637 -2.52382,-3.14316 -1.44292,-0.20656 -3.68773,1.58577 -4.96151,2.32446 l -10.49246,6.08475 c -1.20838,0.70076 -3.2576,1.51912 -4.07172,2.62734 m 30.77788,-17.84861 c -1.09458,1.49015 0.26507,2.89743 0.90466,4.00032 l 5.11795,8.82532 c 0.58936,1.01629 1.16334,2.95623 2.52763,3.28431 1.48729,0.35884 3.43535,-1.21423 4.76789,-1.98699 l 10.49246,-6.08475 c 1.29057,-0.74843 3.55404,-1.64866 4.42077,-2.82977 1.09423,-1.48995 -0.26438,-2.89783 -0.90396,-4.00072 l -5.27789,-9.10111 c -0.5529,-0.95342 -1.14815,-2.94698 -2.52382,-3.14316 -1.44257,-0.20677 -3.68843,1.58617 -4.96151,2.32445 l -10.49246,6.08476 c -1.21013,0.70177 -3.25585,1.51811 -4.07172,2.62734 M 97.207723,319.84351 c -1.43648,1.52036 -0.24778,2.79644 0.44027,3.9829 l 5.437817,9.3769 c 0.57161,0.98568 1.25918,3.34474 2.86195,3.23379 2.20294,-0.15273 6.12346,-3.28501 8.12087,-4.44334 l 17.48743,-10.14126 c 2.16634,-1.25629 5.96038,-2.75224 7.58547,-4.58321 1.24632,-1.40419 -0.31188,-3.02249 -0.92092,-4.0727 l -5.27789,-9.10111 c -0.61415,-1.05904 -1.17503,-2.89822 -2.78613,-2.99104 -2.21304,-0.1274 -6.20487,3.0455 -8.19669,4.20059 l -17.13768,9.93843 c -2.24644,1.30274 -5.863107,2.74669 -7.614497,4.60005 m 45.477107,-26.37295 c -1.45256,1.56434 -0.10547,3.0644 0.59041,4.26437 l 5.11796,8.82532 c 0.61271,1.05656 1.17533,2.88183 2.58603,3.25044 1.52402,0.39798 3.68472,-1.35884 5.05924,-2.15594 l 10.14271,-5.88193 c 1.33848,-0.77621 3.43394,-1.61881 4.48368,-2.72289 1.30791,-1.37615 -0.3596,-3.06042 -0.96687,-4.1076 l -5.11796,-8.82532 c -0.58936,-1.01629 -1.16333,-2.95623 -2.52763,-3.28431 -1.55487,-0.37383 -3.72354,1.38135 -5.11764,2.18982 l -9.79296,5.6791 c -1.36751,0.79305 -3.39276,1.62293 -4.45697,2.76894 m 31.81733,-18.4514 c -1.51046,1.59828 -0.1163,3.02314 0.60021,4.25869 l 5.11795,8.82532 c 0.56202,0.96913 1.14851,2.94677 2.31394,3.40823 1.34728,0.53327 3.73158,-1.38602 4.98158,-2.11092 l 10.14271,-5.88192 c 1.34933,-0.7825 3.41561,-1.61739 4.48368,-2.72289 1.47696,-1.52873 0.0625,-3.13859 -0.61712,-4.31043 l -5.11795,-8.82532 c -0.61719,-1.06428 -1.19367,-2.80301 -2.61242,-3.18391 -1.5322,-0.41129 -3.65414,1.28988 -5.03285,2.08942 l -9.79296,5.6791 c -1.38081,0.80076 -3.38126,1.62585 -4.46677,2.77463 m 31.47738,-18.25427 c -1.51046,1.59829 -0.11631,3.02315 0.60021,4.2587 l 5.11795,8.82532 c 0.57785,0.99643 1.14252,2.87358 2.36935,3.32487 1.40146,0.51549 3.63909,-1.28116 4.92617,-2.02756 l 10.49246,-6.08475 c 1.33429,-0.77378 3.42659,-1.6186 4.43773,-2.75779 1.24667,-1.40439 -0.31189,-3.02249 -0.92092,-4.0727 l -5.11795,-8.82532 c -0.57593,-0.99312 -1.15309,-2.95628 -2.5054,-3.24597 -1.61154,-0.34502 -3.71045,1.32253 -5.13987,2.15148 l -9.79297,5.6791 c -1.3808,0.80076 -3.38125,1.62585 -4.46676,2.77462 m 31.48717,-18.25994 c -1.3792,1.50226 -0.0776,3.11239 0.59041,4.26437 l 5.11796,8.82533 c 0.63014,1.08661 1.21047,2.80137 2.63465,3.22224 1.47485,0.43571 3.66583,-1.34789 5.01061,-2.12775 l 10.84221,-6.28758 c 1.15033,-0.66709 3.31764,-1.5252 4.04269,-2.61051 0.89234,-1.33601 -0.8137,-3.10444 -1.38531,-4.09012 l -5.11795,-8.82532 c -0.5529,-0.95341 -1.14921,-2.94637 -2.52383,-3.14316 -1.44291,-0.20656 -3.68772,1.58577 -4.96151,2.32446 l -9.79296,5.6791 c -1.36017,0.78879 -3.40559,1.62337 -4.45697,2.76894 m 31.81733,-18.4514 c -1.51046,1.59828 -0.11631,3.02314 0.60021,4.25869 l 5.11795,8.82532 c 0.59224,1.02125 1.155,2.87335 2.39158,3.36321 1.34543,0.5325 3.64729,-1.33714 4.90394,-2.06589 l 10.49246,-6.08476 c 1.29232,-0.74944 3.55299,-1.64804 4.42147,-2.83017 1.09458,-1.49015 -0.26508,-2.89743 -0.90466,-4.00032 l -5.11795,-8.82532 c -0.59944,-1.03366 -1.16162,-2.88314 -2.56381,-3.2121 -1.58129,-0.37103 -3.67197,1.30023 -5.08146,2.11761 l -9.79296,5.6791 c -1.38081,0.80076 -3.38126,1.62585 -4.46677,2.77463 m 31.48717,-18.25994 c -1.45256,1.56434 -0.10547,3.0644 0.59041,4.26437 l 5.11796,8.82532 c 0.61255,1.05628 1.17534,2.88182 2.58604,3.25043 1.52401,0.39799 3.68471,-1.35884 5.05923,-2.15594 l 10.14271,-5.88193 c 1.33849,-0.77621 3.43394,-1.61881 4.48368,-2.72288 1.30807,-1.37588 -0.3596,-3.06043 -0.96687,-4.10761 l -4.95802,-8.54953 c -0.57881,-0.99809 -1.14722,-2.90587 -2.31841,-3.41595 -1.55148,-0.67505 -3.69748,1.00802 -5.13705,1.84284 l -10.14271,5.88193 c -1.36751,0.79305 -3.39276,1.62294 -4.45697,2.76895 m 31.81385,-18.47998 c -1.65383,1.52111 -0.10131,3.07157 0.60369,4.28726 l 5.11795,8.82532 c 0.56202,0.96913 1.14851,2.94677 2.31394,3.40824 1.34728,0.53327 3.73158,-1.38602 4.98158,-2.11092 l 10.14271,-5.88193 c 1.34234,-0.77844 3.42777,-1.61817 4.48368,-2.72289 1.40118,-1.46598 0.0353,-3.18547 -0.61712,-4.31042 l -5.11795,-8.82532 c -0.61719,-1.06428 -1.19367,-2.80302 -2.61242,-3.18391 -1.5322,-0.4113 -3.65414,1.28988 -5.03285,2.08941 -4.33548,2.51422 -10.62802,5.08134 -14.26321,8.42516 m 31.48086,-18.22569 c -1.43647,1.52036 -0.24777,2.79644 0.44027,3.9829 l 5.43783,9.3769 c 0.55289,0.95341 1.1492,2.94637 2.52382,3.14316 1.8685,0.26749 5.71137,-2.75931 7.40975,-3.74423 l 16.78793,-9.73561 c 1.69279,-0.98167 5.44247,-2.46221 6.49128,-4.03049 0.89339,-1.33661 -0.81405,-3.10424 -1.38566,-4.08991 l -5.27789,-9.10112 c -0.57929,-0.99891 -1.08464,-2.7085 -2.60394,-2.78969 -2.02408,-0.10541 -5.69376,2.81064 -7.51944,3.86938 l -15.38894,8.92431 c -2.05513,1.1918 -5.31039,2.49655 -6.91501,4.1944 m -252.9292,180.29694 c -0.89233,1.33601 0.8137,3.10444 1.38531,4.09012 l 5.27789,9.10111 c 0.6463,1.11447 1.14971,2.92064 2.98723,2.71078 2.96224,-0.3384 7.60832,-4.06429 10.2839,-5.6159 l 25.8814,-15.00906 c 2.76861,-1.60556 9.38023,-4.23979 10.89099,-6.91991 0.77404,-1.37318 -0.65008,-2.82231 -1.23864,-3.83722 l -5.27789,-9.10111 c -0.55898,-0.96389 -1.18235,-3.00675 -2.75063,-2.92981 -1.01157,0.0497 -2.29056,1.06225 -3.17578,1.5756 l -7.69447,4.46215 -26.58089,15.41471 c -2.45279,1.42241 -8.49366,3.82147 -9.98842,6.05854 m 59.80702,-34.6831 c -1.56791,2.28097 2.43692,6.70943 3.4346,8.42981 1.14898,1.98129 2.63874,6.9156 5.24009,7.5361 1.54093,0.36753 3.59104,-1.23265 4.96416,-2.02894 l 10.49246,-6.08476 c 1.33988,-0.77702 3.55141,-1.6685 4.268,-3.0279 1.12431,-2.1328 -2.69295,-6.34499 -3.65992,-8.01242 -1.12179,-1.9344 -2.61708,-6.92742 -4.87291,-7.82089 -1.34728,-0.53328 -3.73158,1.38601 -4.98159,2.11091 l -10.49245,6.08476 c -1.24651,0.72286 -3.59308,1.65065 -4.39244,2.81333 m 31.47738,-18.25426 c -0.62336,0.93347 0.0231,1.7364 0.42569,2.43537 l 3.35866,5.79162 c 1.01095,1.74327 2.76665,7.21918 5.05542,7.64319 1.53161,0.28375 3.45324,-1.15274 4.79907,-1.93321 l 10.84221,-6.28758 c 1.34933,-0.7825 3.4648,-1.66877 4.19716,-3.03805 1.16248,-2.17336 -2.61362,-6.32023 -3.58907,-8.00228 l -3.35866,-5.79161 c -0.42991,-0.74133 -0.85027,-1.91349 -1.91079,-2.08605 -1.35828,-0.221 -3.71662,1.66407 -4.9348,2.37051 l -10.84221,6.28758 c -1.15032,0.66709 -3.31764,1.52519 -4.04268,2.61051 m 31.78182,-18.51263 c -1.24632,1.40419 0.31189,3.02248 0.92093,4.0727 l 5.11795,8.82532 c 0.58505,1.00884 1.15952,2.91016 2.55485,3.19665 1.59006,0.32652 3.69003,-1.29005 5.09042,-2.10216 l 9.79296,-5.6791 c 1.38081,-0.80076 3.38126,-1.62585 4.46677,-2.77463 1.51046,-1.59828 0.1163,-3.02314 -0.60021,-4.25869 l -5.11795,-8.82532 c -0.56202,-0.96913 -1.14851,-2.94677 -2.31394,-3.40823 -1.34728,-0.53328 -3.73158,1.38602 -4.98158,2.11091 l -10.49246,6.08476 c -1.33429,0.77378 -3.42659,1.61859 -4.43774,2.75779 m 31.52268,-18.19872 c -0.68273,1.02208 0.14772,1.95605 0.58563,2.71117 l 3.51859,6.0674 c 0.98569,1.69971 2.53136,6.63292 4.7445,7.10705 1.5353,0.32879 3.42856,-1.15905 4.79013,-1.94865 l 10.49246,-6.08476 c 1.36716,-0.79284 3.4148,-1.64456 4.33022,-2.92061 1.06987,-1.49167 -0.33489,-3.08471 -0.97335,-4.18566 l -4.95802,-8.54953 c -0.61271,-1.05656 -1.17533,-2.88183 -2.58603,-3.25044 -1.46026,-0.38152 -3.39548,1.1911 -4.70949,1.95312 l -10.84221,6.28758 c -1.22901,0.71272 -3.62034,1.65762 -4.39243,2.81333 m 31.52599,-18.28245 c -1.28483,2.00993 2.81978,6.67572 3.73574,8.25518 1.05621,1.82133 2.71314,7.11643 5.11382,7.60932 1.50531,0.30932 3.41338,-1.12962 4.74067,-1.89934 l 10.84221,-6.28758 c 1.34933,-0.7825 3.4648,-1.66876 4.19716,-3.03804 1.16248,-2.17337 -2.61362,-6.32023 -3.58907,-8.00229 l -3.35866,-5.79161 c -0.42991,-0.74133 -0.85027,-1.91349 -1.91079,-2.08605 -1.29785,-0.21109 -3.42703,1.49613 -4.58505,2.16769 l -10.84221,6.28758 c -1.19579,0.69345 -3.61744,1.64893 -4.34382,2.78514 m 31.76872,-18.42322 c -1.04466,1.47631 0.25655,2.92707 0.88542,4.01148 l 5.11795,8.82532 c 0.6028,1.03946 1.1888,2.83089 2.60346,3.16846 1.54228,0.36823 3.67359,-1.28052 5.04181,-2.07397 l 10.14271,-5.88193 c 1.35597,-0.78635 3.46999,-1.6445 4.38596,-2.89139 1.14335,-1.55676 -0.3556,-3.05353 -1.02909,-4.21489 l -4.95801,-8.54953 c -0.56202,-0.96913 -1.14851,-2.94677 -2.31394,-3.40823 -1.34728,-0.53327 -3.73158,1.38602 -4.98158,2.11092 l -10.49246,6.08475 c -1.26574,0.73402 -3.57331,1.64766 -4.40223,2.81901 m 31.48717,-18.25994 c -0.89234,1.33601 0.8137,3.10445 1.38531,4.09012 l 5.27789,9.10112 c 0.6463,1.11447 1.14971,2.92064 2.98722,2.71078 3.04944,-0.34843 7.87693,-4.22006 10.63365,-5.81873 l 25.8814,-15.00906 c 2.6441,-1.53335 9.56293,-4.31883 10.91358,-6.88178 0.7082,-1.34163 -0.52937,-2.61333 -1.1013,-3.59956 l -5.27788,-9.10111 c -0.57162,-0.98568 -1.25778,-3.34555 -2.8616,-3.23399 -2.68265,0.18547 -7.76798,4.23869 -10.21972,5.66049 l -26.93064,15.61754 -7.69447,4.46215 c -0.909,0.52714 -2.41497,1.13624 -2.99344,2.00203 M 125.81618,369.95887 c -1.28545,1.40846 0.32009,2.99231 0.94016,4.06155 l 5.43782,9.3769 c 0.5625,0.96996 1.14771,2.94539 2.71513,2.86859 1.16872,-0.0575 2.53836,-1.12414 3.56103,-1.7172 l 7.69447,-4.46215 25.88139,-15.00906 c 2.59724,-1.50618 8.31408,-3.75639 10.01745,-6.07537 1.09458,-1.49016 -0.26507,-2.89743 -0.90466,-4.00032 l -5.43782,-9.37691 c -0.60904,-1.05021 -1.23971,-3.2064 -3.07748,-2.82208 -3.59007,0.75078 -8.67469,4.84633 -11.94239,6.74133 l -24.4824,14.19775 c -2.95153,1.71165 -8.15991,3.75949 -10.4027,6.21697 m 59.16226,-34.22737 c -1.04466,1.47631 0.25655,2.92706 0.88542,4.01147 l 5.43782,9.37691 c 0.67957,1.17183 1.3743,3.19911 3.4347,2.67647 3.79978,-0.96379 8.80712,-4.98468 12.28467,-7.00137 l 28.32964,-16.42883 95.13162,-55.16843 31.12763,-18.05144 7.69447,-4.46215 c 0.94013,-0.5452 2.37262,-1.17139 2.79137,-2.17158 0.51235,-1.224 -1.00344,-2.80461 -1.53299,-3.71775 l -5.43782,-9.37691 c -0.68293,-1.17762 -1.19833,-3.15116 -3.27824,-2.42924 -4.40687,1.52959 -9.24537,5.26941 -13.33044,7.6384 l -28.32963,16.42884 -90.23515,52.32888 -32.52662,18.86274 -8.74372,5.07063 c -1.10171,0.63889 -2.97699,1.38808 -3.70273,2.41336 M 375.20619,225.33341 c -1.24632,1.40419 0.31189,3.02248 0.92092,4.0727 l 5.43783,9.3769 c 0.56249,0.96996 1.14805,2.94519 2.71512,2.86858 1.16873,-0.0575 2.53836,-1.12413 3.56103,-1.71719 l 7.69447,-4.46216 25.8814,-15.00906 c 2.59863,-1.50699 8.31407,-3.75638 10.01674,-6.07496 1.09424,-1.48995 -0.26437,-2.89784 -0.90395,-4.00073 l -5.43783,-9.3769 c -0.60904,-1.05021 -1.23831,-3.20721 -3.07642,-2.82269 -3.19279,0.6678 -7.64504,4.24921 -10.54445,5.93063 l -24.48241,14.19776 c -3.2677,1.895 -9.34776,4.27403 -11.78245,7.01712 z"
       id="path1315" />
  </g>
</svg>
