<?xml version="1.0" encoding="UTF-8" standalone="no"?>
<!-- Created with Inkscape (http://www.inkscape.org/) -->

<svg
   width="512"
   height="512"
   viewBox="0 0 512 512"
   version="1.1"
   id="svg5"
   xmlns="http://www.w3.org/2000/svg"
   xmlns:svg="http://www.w3.org/2000/svg">
  <defs
     id="defs2" />
  <g
     id="layer1">
    <path
       style="fill:#000000;stroke-width:1.70779"
       d="m 155.07963,365.74312 c -0.62818,-0.65403 -1.14214,-15.15887 -1.14214,-32.23299 v -31.04384 l -10.46054,-10.9237 c -48.354292,-50.49527 -25.50413,-135.74499 40.74266,-152.0033 53.19334,-13.05473 106.76346,30.24355 106.93541,86.431 0.0199,6.48724 2.68122,13.86522 13.47406,37.35348 15.81033,34.40772 15.82422,33.85022 -0.84415,33.85022 h -12.60517 l -0.0368,10.01987 c -0.0807,21.98913 -9.88578,31.68815 -32.1113,31.76392 l -11.22692,0.0383 -0.48882,13.50504 -0.48882,13.50504 -45.30266,0.46308 c -24.91646,0.25469 -45.81662,-0.072 -46.44479,-0.72609 z m 86.23756,-19.34108 0.48883,-13.50504 15.06317,-0.93518 c 23.06347,-1.43186 26.04897,-4.35348 27.53546,-26.9462 l 0.91721,-13.94068 12.02672,-0.50973 12.02674,-0.50974 -12.44516,-27.15384 c -9.41815,-20.54928 -12.44514,-28.95031 -12.44514,-34.53979 0,-53.97339 -50.04428,-95.28305 -99.26081,-81.93605 -62.35613,16.91032 -82.06156,96.39842 -35.20986,142.03011 l 10.61789,10.34139 v 30.55491 30.55488 h 40.09806 40.09807 z m 131.06261,18.77704 c -0.55446,-0.93408 2.09728,-5.78869 5.89277,-10.78802 26.64746,-35.09934 26.60995,-79.38419 -0.0971,-114.56193 -9.25076,-12.18488 -6.77029,-16.56767 3.49478,-6.175 29.52387,29.89089 30.26787,92.7558 1.48255,125.26977 -7.22802,8.16425 -9.02166,9.20569 -10.77309,6.25518 z m -37.6842,-21.11392 c 0,-1.04567 2.59343,-5.05578 5.76317,-8.91136 18.74328,-22.79872 18.7525,-54.58516 0.0221,-76.17094 -6.57742,-7.58011 -6.38994,-13.22065 0.29371,-8.83694 16.35699,10.72831 24.56889,42.33216 17.33534,66.71579 -4.53701,15.29387 -23.41432,37.22609 -23.41432,27.20345 z"
       id="path2098" />
  </g>
</svg>
